#!OML:ASF I:\Actors\actors\Patient Classification 2\Patient 1\Session 1\actor1.ASF
:FULLY-SPECIFIED
:DEGREES
549
root -0.357144 18.828 4.19688 9.3665 -12.5469 1.3838
lowerback 30.8718 -4.18761 -0.415136
upperback 8.09684 -5.65729 -1.67882
thorax -7.84897 -2.69232 0.41358
lowerneck -24.8377 4.29917 5.02205
upperneck 29.2216 6.31799 -6.58185
head 14.6632 2.26019 -2.31902
rclavicle 6.91771e-014 -1.98785e-014
rhumerus 13.1882 31.2491 -43.2724
rradius 105.906
rwrist -44.1273
rhand -36.0217 -29.0743
rfingers 7.12502
rthumb -9.13071 301.143
lclavicle 6.91771e-014 -1.98785e-014
lhumerus 20.0161 -43.9552 74.326
lradius 69.5169
lwrist 22.3927
lhand -29.6829 -72.8367
lfingers 7.12502
lthumb -3.01121 -42.8782
rfemur 0 0 0
rtibia 0
rfoot 0 0
rtoes 0
lfemur -19.4535 9.08612 -17.1832
ltibia 24.1677
lfoot -16.6746 11.3998
ltoes -55.6799
550
root -0.354894 18.8271 4.19314 9.36964 -12.2751 1.37458
lowerback 30.8705 -3.96607 -0.541009
upperback 8.01064 -5.40776 -1.59995
thorax -7.92683 -2.57144 0.486006
lowerneck -24.7272 4.12933 4.96865
upperneck 29.2583 6.07486 -6.50362
head 14.6308 2.16563 -2.32799
rclavicle 3.97569e-014 -3.33958e-014
rhumerus 13.7958 31.4735 -42.823
rradius 105.97
rwrist -44.3279
rhand -36.0846 -29.3496
rfingers 7.12502
rthumb -9.19139 300.871
lclavicle 3.97569e-014 -3.33958e-014
lhumerus 19.6833 -43.941 74.0634
lradius 70.4961
lwrist 24.0001
lhand -28.7055 -72.6853
lfingers 7.12502
lthumb -2.06732 -42.7156
rfemur 0 0 0
rtibia 0
rfoot 0 0
rtoes 0
lfemur -19.5431 8.98136 -17.1781
ltibia 24.2133
lfoot -16.5591 11.3503
ltoes -55.7549
551
root -0.352578 18.8268 4.18964 9.38227 -11.9592 1.31022
lowerback 30.9002 -3.77902 -0.606235
upperback 7.8962 -5.18164 -1.50021
thorax -8.05596 -2.46091 0.558728
lowerneck -24.7078 3.95361 4.7369
upperneck 29.4471 5.89248 -6.39389
head 14.6834 2.07652 -2.284
rclavicle -2.38542e-015 -1.43125e-014
rhumerus 14.44 31.7865 -42.3509
rradius 106
rwrist -44.4949
rhand -36.1403 -29.6414
rfingers 7.12502
rthumb -9.24522 300.581
lclavicle -2.38542e-015 -1.43125e-014
lhumerus 19.1914 -43.92 73.9597
lradius 71.3376
lwrist 25.0582
lhand -27.9153 -72.5029
lfingers 7.12502
lthumb -1.30415 -42.5271
rfemur 0 0 0
rtibia 0
rfoot 0 0
rtoes 0
lfemur -19.6315 8.78112 -17.0931
ltibia 24.2479
lfoot -16.4001 11.2993
ltoes -55.7485
552
root -0.351147 18.8272 4.18754 9.39644 -11.6086 1.21568
lowerback 30.9112 -3.63231 -0.63609
upperback 7.80327 -4.99508 -1.40267
thorax -8.15581 -2.36993 0.621034
lowerneck -24.7975 3.76844 4.39995
upperneck 29.7414 5.668 -6.07295
head 14.7919 1.98443 -2.14412
rclavicle -4.77083e-015 3.33958e-014
rhumerus 15.1224 32.1164 -41.8603
rradius 106.031
rwrist -44.5141
rhand -36.1029 -29.718
rfingers 7.12502
rthumb -9.20906 300.503
lclavicle -4.77083e-015 3.33958e-014
lhumerus 18.8767 -43.9128 73.5834
lradius 72.0315
lwrist 25.6262
lhand -27.7442 -72.2522
lfingers 7.12502
lthumb -1.13888 -42.2755
rfemur 0 0 0
rtibia 0
rfoot 0 0
rtoes 0
lfemur -19.71 8.54932 -16.9666
ltibia 24.2838
lfoot -16.2856 11.1934
ltoes -55.7111
553
root -0.34925 18.8295 4.18806 9.39507 -11.2905 1.15186
lowerback 30.8818 -3.48411 -0.68944
upperback 7.73398 -4.81654 -1.3363
thorax -8.2114 -2.28355 0.661548
lowerneck -24.8759 3.61759 4.23722
upperneck 30.0002 5.43352 -5.79788
head 14.8917 1.90285 -2.05394
rclavicle 7.15625e-015 -4.77083e-014
rhumerus 15.8077 32.3922 -41.3691
rradius 106.08
rwrist -44.4782
rhand -35.9184 -29.6935
rfingers 7.12502
rthumb -9.03111 300.52
lclavicle 7.15625e-015 -4.77083e-014
lhumerus 18.7008 -43.913 73.009
lradius 72.7406
lwrist 26.4531
lhand -27.6144 -71.891
lfingers 7.12502
lthumb -1.01347 -41.9136
rfemur 0 0 0
rtibia 0
rfoot 0 0
rtoes 0
lfemur -19.7497 8.30019 -16.877
ltibia 24.3212
lfoot -16.2891 11.1122
ltoes -55.7327
554
root -0.346102 18.8307 4.1848 9.44632 -10.9955 1.0558
lowerback 30.8388 -3.32899 -0.705192
upperback 7.64249 -4.61907 -1.27681
thorax -8.29024 -2.18838 0.66616
lowerneck -24.8296 3.4947 4.25658
upperneck 30.1388 5.21469 -5.67931
head 14.9249 1.83066 -2.05504
rclavicle -1.31198e-014 -1.98785e-014
rhumerus 16.48 32.6091 -40.9075
rradius 106.118
rwrist -44.3857
rhand -35.0302 -31.0876
rfingers 7.12502
rthumb -8.17392 299.09
lclavicle -1.31198e-014 -1.98785e-014
lhumerus 18.473 -43.9451 72.4649
lradius 73.4497
lwrist 27.2799
lhand -27.4054 -71.5602
lfingers 7.12502
lthumb -0.811637 -41.582
rfemur 0 0 0
rtibia 0
rfoot 0 0
rtoes 0
lfemur -19.8637 8.05488 -16.761
ltibia 24.3573
lfoot -16.282 11.1156
ltoes -55.7788
555
root -0.345073 18.8299 4.17994 9.49622 -10.7186 0.962697
lowerback 30.7628 -3.15433 -0.762968
upperback 7.57008 -4.40898 -1.21613
thorax -8.32886 -2.0877 0.689135
lowerneck -24.6789 3.36313 4.30383
upperneck 30.152 4.97419 -5.57844
head 14.8788 1.75343 -2.07026
rclavicle 6.36111e-015 1.74931e-014
rhumerus 17.1861 32.9167 -40.3664
rradius 106.238
rwrist -44.9467
rhand -33.2515 -34.2627
rfingers 7.12502
rthumb -6.45697 295.856
lclavicle 6.36111e-015 1.74931e-014
lhumerus 18.3253 -44.0331 71.8513
lradius 74.1087
lwrist 27.821
lhand -27.5418 -70.5867
lfingers 7.12502
lthumb -0.943409 -40.609
rfemur 0 0 0
rtibia 0
rfoot 0 0
rtoes 0
lfemur -19.9954 7.91346 -16.6507
ltibia 24.3985
lfoot -16.2063 11.0901
ltoes -55.8327
556
root -0.34957 18.8296 4.17892 9.46994 -10.4107 0.892265
lowerback 30.7109 -2.96877 -0.893152
upperback 7.51794 -4.20495 -1.14111
thorax -8.35001 -1.98907 0.772491
lowerneck -24.982 3.1084 3.71246
upperneck 30.7141 4.58351 -4.77166
head 15.1291 1.62769 -1.71931
rclavicle -2.54444e-014 3.57812e-014
rhumerus 17.8792 33.5445 -39.6485
rradius 106.62
rwrist -46.9582
rhand -35.3929 -33.0873
rfingers 7.12502
rthumb -8.52393 297.105
lclavicle -2.54444e-014 3.57812e-014
lhumerus 18.2443 -44.0867 71.2627
lradius 74.7135
lwrist 28.381
lhand -27.6912 -68.8352
lfingers 7.12502
lthumb -1.08764 -38.8583
rfemur 0 0 0
rtibia 0
rfoot 0 0
rtoes 0
lfemur -20.0262 7.83449 -16.5409
ltibia 24.4386
lfoot -16.1284 10.9364
ltoes -55.887
557
root -0.352326 18.8301 4.17865 9.43263 -10.086 0.815538
lowerback 30.6891 -2.79486 -0.969883
upperback 7.44753 -4.00141 -1.08057
thorax -8.41225 -1.89045 0.811409
lowerneck -24.9989 2.88155 3.43644
upperneck 31.0159 4.21524 -4.30635
head 15.2273 1.50708 -1.55591
rclavicle 3.18055e-015 -3.73715e-014
rhumerus 18.4829 33.7682 -39.1269
rradius 106.678
rwrist -47.1391
rhand -35.2651 -33.0808
rfingers 7.12502
rthumb -8.40064 297.106
lclavicle 3.18055e-015 -3.73715e-014
lhumerus 18.1419 -44.1314 70.7543
lradius 75.2636
lwrist 29.0612
lhand -27.6945 -67.5631
lfingers 7.12502
lthumb -1.0909 -37.5861
rfemur 0 0 0
rtibia 0
rfoot 0 0
rtoes 0
lfemur -20.0398 7.72311 -16.4246
ltibia 24.4687
lfoot -16.0656 10.7531
ltoes -55.8294
558
root -0.351482 18.8301 4.17578 9.40048 -9.72443 0.7781
lowerback 30.6835 -2.65354 -1.01819
upperback 7.38586 -3.83312 -1.04966
thorax -8.47662 -1.80856 0.814047
lowerneck -24.9678 2.6801 3.28284
upperneck 31.2063 3.87355 -3.96999
head 15.276 1.3956 -1.46011
rclavicle -1.27222e-014 -1.19271e-014
rhumerus 19.102 33.9582 -38.6462
rradius 106.707
rwrist -47.2859
rhand -35.2417 -33.1521
rfingers 7.12502
rthumb -8.37805 297.034
lclavicle -1.27222e-014 -1.19271e-014
lhumerus 18.1924 -44.2219 70.0794
lradius 75.7636
lwrist 29.7558
lhand -27.72 -67.0492
lfingers 7.12502
lthumb -1.11546 -37.0724
rfemur 0 0 0
rtibia 0
rfoot 0 0
rtoes 0
lfemur -20.082 7.50851 -16.3509
ltibia 24.4932
lfoot -16.0478 10.6187
ltoes -55.6486
559
root -0.351368 18.83 4.1712 9.38492 -9.29519 0.756137
lowerback 30.6874 -2.55132 -1.09591
upperback 7.32329 -3.71943 -0.990309
thorax -8.54214 -1.7514 0.885702
lowerneck -25.0107 2.53952 3.19201
upperneck 31.3946 3.64628 -3.78412
head 15.3541 1.31648 -1.41471
rclavicle -3.10104e-014 1.43125e-014
rhumerus 19.8705 34.1465 -38.0486
rradius 106.722
rwrist -47.4773
rhand -35.2986 -33.3126
rfingers 7.12502
rthumb -8.43295 296.876
lclavicle -3.10104e-014 1.43125e-014
lhumerus 18.318 -44.2601 69.3419
lradius 76.2606
lwrist 30.4393
lhand -27.6301 -66.7723
lfingers 7.12502
lthumb -1.02867 -36.795
rfemur 0 0 0
rtibia 0
rfoot 0 0
rtoes 0
lfemur -20.1617 7.24354 -16.285
ltibia 24.5251
lfoot -16.0171 10.4856
ltoes -55.568
560
root -0.35067 18.8302 4.17007 9.38311 -8.92414 0.696219
lowerback 30.4821 -2.46348 -1.08892
upperback 7.35457 -3.60048 -0.981763
thorax -8.41024 -1.69777 0.83821
lowerneck -24.9566 2.43065 3.2693
upperneck 31.4133 3.44323 -3.74549
head 15.3414 1.24882 -1.45318
rclavicle -2.42517e-014 2.0276e-014
rhumerus 20.6888 34.227 -37.5117
rradius 106.696
rwrist -47.6144
rhand -35.2428 -33.2242
rfingers 7.12502
rthumb -8.37908 296.962
lclavicle -2.42517e-014 2.0276e-014
lhumerus 18.5372 -44.3713 68.4943
lradius 76.6154
lwrist 30.4927
lhand -28.1098 -66.2891
lfingers 7.12502
lthumb -1.492 -36.3146
rfemur 0 0 0
rtibia 0
rfoot 0 0
rtoes 0
lfemur -20.2396 7.03486 -16.1956
ltibia 24.5736
lfoot -15.932 10.3841
ltoes -55.6381
